<svg width="720" height="720" viewBox="0 0 720 720" fill="none" xmlns="http://www.w3.org/2000/svg">
<path d="M349.226 114.212C320.805 119.314 293.519 129.436 268.647 144.105C248.594 155.799 200.654 184.546 171.688 243.927C123.176 343.346 158.09 474.949 255.385 530.539C312.812 563.33 392.936 570.98 444.381 523.596C502.987 469.674 499.196 382.843 447.111 335.797C448.935 357.617 444.56 379.509 434.49 398.952C422.172 423.302 403.856 448.729 377.754 459.379C348.4 471.359 310.655 475.252 281.47 461.3C265.544 455.516 251.094 446.28 239.158 434.254C187.781 381.563 195.633 278.404 242.09 213.883C275.791 166.971 324.085 148.671 342.755 141.594C386.971 124.743 430.698 123.395 459.26 123.058C423.84 111.24 386.079 108.204 349.226 114.212V114.212Z" fill="url(#paint0_linear_27_2)"/>
<path d="M569.31 479.682C604.898 444.785 612.767 399.642 614.806 387.965C624.024 336.436 616.171 246.538 552.56 213.898C519.112 196.728 483.271 202.103 461.921 207.798C461.921 207.798 502.076 190.594 552.56 202.052C552.56 202.052 468.459 112.003 357.346 219.274C357.346 219.274 378.174 167.037 431.489 155.595C431.489 155.595 226.114 153.91 258.248 366.126C257.524 361.358 271.004 348.518 273.734 345.484C286.661 330.914 302.668 319.402 320.595 311.783C342.704 302.957 367.002 301.192 390.154 306.728C411.305 311.342 430.903 321.35 447.042 335.779C499.127 382.825 502.918 469.69 444.312 523.578C392.867 570.911 312.743 563.312 255.316 530.521C158.021 474.914 123.107 343.26 171.619 243.909C200.586 184.595 248.525 155.781 268.578 144.086C293.45 129.418 320.736 119.296 349.157 114.194C386.014 108.203 423.775 111.256 459.191 123.091C460.438 123.495 461.635 123.899 462.747 124.304C462.747 124.304 461.803 123.849 460.051 123.091C448.053 117.867 396.928 97.6968 333.048 102.364C276.295 106.527 209.516 130.336 151.264 201.783C151.264 201.783 184.847 181.107 199.305 180.517C199.972 180.457 200.643 180.457 201.31 180.517C201.31 180.517 200.029 181.057 197.805 182.202C174.922 193.728 49.6044 267.332 121.725 465.915C121.725 465.915 113.114 403.383 128.6 378.141C128.6 378.141 96.4827 589.818 337.985 616.206C337.985 616.206 308.85 604.41 285.563 590.761C270.313 581.78 257.557 571.956 257.102 564.003C257.102 564.003 413.054 673.194 540.967 539.283C555.139 524.296 567.846 507.989 578.914 490.585C573.374 495.748 567.269 500.27 560.716 504.065C545.028 513.586 518.691 525.819 479.665 532.543C495.976 529.729 513.113 519.972 527.099 511.783C542.435 502.858 556.612 492.076 569.31 479.682V479.682ZM363.564 240.32C360.379 250.43 353.555 256.446 348.298 261.063C336.502 271.426 324.707 281.806 311.732 292.894C311.732 292.894 311.311 253.75 365.081 225.357C365.561 230.396 365.045 235.48 363.564 240.32V240.32Z" fill="#EAA01F"/>
<defs>
<linearGradient id="paint0_linear_27_2" x1="159.021" y1="407.996" x2="486.863" y2="407.996" gradientUnits="userSpaceOnUse">
<stop stop-color="#E09515"/>
<stop offset="1" stop-color="#95640E"/>
</linearGradient>
</defs>
</svg>
